<svg width="24" height="24" viewBox="0 0 38 38" xmlns="http://www.w3.org/2000/svg">
  <defs>
    <symbol id="s4" viewBox="0 0 20 20"><path d="M10,0 L12,7.5 L20,10 L12,12.5 L10,20 L8,12.5 L0,10 L8,7.5 Z"/></symbol>
    <symbol id="sp" viewBox="0 0 20 20"><path d="M10,0 L10.8,8.2 L20,10 L10.8,11.8 L10,20 L9.2,11.8 L0,10 L9.2,8.2 Z"/></symbol>
  </defs>
  <line x1="10" y1="10" x2="19" y2="19" stroke="#ff9500" stroke-width="0.7" opacity="0.4"/>
  <line x1="19" y1="19" x2="30" y2="14" stroke="#ff9500" stroke-width="0.7" opacity="0.4"/>
  <line x1="19" y1="19" x2="13" y2="30" stroke="#ff9500" stroke-width="0.7" opacity="0.4"/>
  <line x1="30" y1="14" x2="26" y2="28" stroke="#ff9500" stroke-width="0.5" opacity="0.3"/>
  <use href="#s4" x="5" y="5" width="10" height="10" fill="#ff9500" opacity="0.8"/>
  <use href="#sp" x="12" y="12" width="14" height="14" fill="#ff9500" opacity="1"/>
  <use href="#s4" x="25" y="9" width="9" height="9" fill="#ff9500" opacity="0.7"/>
  <use href="#sp" x="9.5" y="27" width="7" height="7" fill="#ff9500" opacity="0.5"/>
</svg>
